<?xml version="1.0" encoding="UTF-8" standalone="no"?>
<!-- Created with Inkscape (http://www.inkscape.org/) -->

<svg
   xmlns:dc="http://purl.org/dc/elements/1.1/"
   xmlns:cc="http://creativecommons.org/ns#"
   xmlns:rdf="http://www.w3.org/1999/02/22-rdf-syntax-ns#"
   xmlns:svg="http://www.w3.org/2000/svg"
   xmlns="http://www.w3.org/2000/svg"
   xmlns:xlink="http://www.w3.org/1999/xlink"
   xmlns:sodipodi="http://sodipodi.sourceforge.net/DTD/sodipodi-0.dtd"
   xmlns:inkscape="http://www.inkscape.org/namespaces/inkscape"
   width="234.2827"
   height="144.58922"
   id="svg2988"
   sodipodi:version="0.32"
   inkscape:version="0.48.1 "
   version="1.0"
   sodipodi:docname="valessiobritoHoofofGreenTurtle1.svg"
   inkscape:output_extension="org.inkscape.output.svg.inkscape">
  <defs
     id="defs2990">
    <linearGradient
       y2="472.03271"
       x2="-44.855846"
       y1="385.64081"
       x1="11.745752"
       gradientUnits="userSpaceOnUse"
       id="linearGradient5776"
       xlink:href="#linearGradient3725"
       inkscape:collect="always" />
    <linearGradient
       y2="472.03271"
       x2="-44.855846"
       y1="385.64081"
       x1="11.745752"
       gradientUnits="userSpaceOnUse"
       id="linearGradient5602"
       xlink:href="#linearGradient3725"
       inkscape:collect="always" />
    <linearGradient
       gradientUnits="userSpaceOnUse"
       y2="472.03271"
       x2="-44.855846"
       y1="385.64081"
       x1="11.745752"
       id="linearGradient3731"
       xlink:href="#linearGradient3725"
       inkscape:collect="always" />
    <linearGradient
       id="linearGradient3725"
       inkscape:collect="always">
      <stop
         id="stop3727"
         offset="0"
         style="stop-color:#a8e766;stop-opacity:1;" />
      <stop
         id="stop3729"
         offset="1"
         style="stop-color:#a8e766;stop-opacity:0;" />
    </linearGradient>
    <linearGradient
       inkscape:collect="always"
       xlink:href="#linearGradient3725"
       id="linearGradient4105"
       gradientUnits="userSpaceOnUse"
       x1="11.745752"
       y1="385.64081"
       x2="-44.855846"
       y2="472.03271" />
    <linearGradient
       inkscape:collect="always"
       xlink:href="#linearGradient3725"
       id="linearGradient4294"
       gradientUnits="userSpaceOnUse"
       x1="11.745752"
       y1="385.64081"
       x2="-44.855846"
       y2="472.03271" />
  </defs>
  <sodipodi:namedview
     id="base"
     pagecolor="#ffffff"
     bordercolor="#666666"
     borderopacity="1.0"
     inkscape:pageopacity="0.0"
     inkscape:pageshadow="2"
     inkscape:zoom="1.4"
     inkscape:cx="177.14765"
     inkscape:cy="111.70279"
     inkscape:document-units="px"
     inkscape:current-layer="layer1"
     inkscape:window-width="1024"
     inkscape:window-height="693"
     inkscape:window-x="0"
     inkscape:window-y="25"
     showgrid="false"
     inkscape:window-maximized="0" />
  <metadata
     id="metadata2993">
    <rdf:RDF>
      <cc:Work
         rdf:about="">
        <dc:format>image/svg+xml</dc:format>
        <dc:type
           rdf:resource="http://purl.org/dc/dcmitype/StillImage" />
        <dc:title></dc:title>
      </cc:Work>
    </rdf:RDF>
  </metadata>
  <g
     inkscape:label="Camada 1"
     inkscape:groupmode="layer"
     id="layer1"
     transform="translate(-231.53,-596.68255)">
    <path
       style="fill:none;fill-rule:evenodd;stroke:#2e3436;stroke-width:1.24344587px;stroke-linecap:butt;stroke-linejoin:miter;stroke-opacity:1"
       d="M 286.98057,692.95116 C 293.25867,674.7765 300.34874,663.55155 307.99761,652.23065 C 315.879,648.20238 323.76038,645.57525 331.64178,644.34925 C 336.06687,649.73212 339.37958,654.65108 342.41302,661.42559 C 336.63333,679.51167 329.54006,692.84889 323.23496,708.97666 C 307.9778,711.30634 291.64377,698.99345 286.98057,692.95116 z"
       id="path2219"
       sodipodi:nodetypes="cccccc" />
    <path
       style="fill:none;fill-rule:evenodd;stroke:#2e3436;stroke-width:1.24344587px;stroke-linecap:butt;stroke-linejoin:miter;stroke-opacity:1"
       d="M 370.18451,610.13198 C 369.52208,610.14593 368.83872,610.17719 368.16391,610.2097 C 350.6314,616.26041 338.21145,627.43386 331.98741,644.79304 C 336.23588,650.00851 339.44939,654.83177 342.40126,661.42413 C 342.33338,661.63656 342.27522,661.83472 342.20698,662.04584 C 351.16573,655.63956 359.3422,651.09973 366.57075,648.29022 C 372.05004,638.84011 377.49788,630.85962 391.55623,620.42927 C 388.86201,617.62699 386.0086,614.83829 382.61897,612.03601 C 379.11424,610.43519 374.82154,610.03433 370.18451,610.13198 z"
       id="path2221" />
    <path
       style="fill:none;fill-rule:evenodd;stroke:#2e3436;stroke-width:1.24344587px;stroke-linecap:butt;stroke-linejoin:miter;stroke-opacity:1"
       d="M 342.98413,608.9274 C 339.66802,608.91158 336.12761,608.99642 332.18169,609.16054 C 310.72982,612.64181 304.26066,630.16801 300.39611,637.79865 C 303.45398,641.32208 306.15729,646.39903 308.43965,652.02057 C 316.18026,648.11342 323.89707,645.56971 331.63769,644.3656 C 331.75667,644.51035 331.87001,644.64893 331.98741,644.79304 C 338.21145,627.43386 350.6314,616.26041 368.16391,610.2097 C 368.33236,610.20158 368.5,610.21741 368.66906,610.2097 C 360.40676,609.71219 352.82345,608.97433 342.98413,608.9274 z"
       id="path2228" />
    <path
       style="fill:none;fill-rule:evenodd;stroke:#2e3436;stroke-width:1.24344587px;stroke-linecap:butt;stroke-linejoin:miter;stroke-opacity:1"
       d="M 300.59039,637.41007 C 287.25791,644.28886 274.80941,652.90647 264.91904,666.66992 C 263.46506,675.11171 277.13181,692.05408 287.02907,692.97656 C 287.0188,692.96336 287.00035,692.95086 286.99021,692.93771 C 293.2683,674.76304 300.36335,663.53576 308.01222,652.21485 C 308.15311,652.14283 308.29875,652.09164 308.43965,652.02057 C 306.15729,646.39903 303.45398,641.32208 300.39611,637.79865 C 300.45389,637.68457 300.53141,637.52851 300.59039,637.41007 z"
       id="path2236"
       sodipodi:nodetypes="cccccccc" />
    <path
       style="fill:none;fill-rule:evenodd;stroke:#2e3436;stroke-width:1.24344587px;stroke-linecap:butt;stroke-linejoin:miter;stroke-opacity:1"
       d="M 304.24302,612.58002 C 300.30837,612.69767 295.97846,613.68739 290.40968,616.77665 C 261.95715,635.33911 262.06292,653.20984 264.99676,666.55334 C 274.87377,652.85679 287.29504,644.2697 300.59039,637.41007 C 303.51347,631.54541 307.93585,620.47242 318.97008,613.86232 C 313.65155,613.68784 309.27691,612.42949 304.24302,612.58002 z"
       id="path2244" />
    <path
       style="fill:none;fill-rule:evenodd;stroke:#2e3436;stroke-width:1.24344587px;stroke-linecap:butt;stroke-linejoin:miter;stroke-opacity:1"
       d="M 323.39985,608.61654 C 322.50487,608.60853 321.61898,608.62744 320.75753,608.65539 C 313.17681,608.90133 306.86464,610.40589 301.44527,612.81317 C 302.40743,612.67762 303.33351,612.60721 304.24302,612.58002 C 309.27691,612.42949 313.65155,613.68784 318.97008,613.86232 C 322.53741,611.72531 326.79583,610.06287 331.90969,609.1994 L 331.90969,609.16054 C 328.91402,608.83305 326.08482,608.64054 323.39985,608.61654 z"
       id="path2252"
       sodipodi:nodetypes="cscscccc" />
    <path
       style="fill:none;fill-rule:evenodd;stroke:#2e3436;stroke-width:1.24344587px;stroke-linecap:butt;stroke-linejoin:miter;stroke-opacity:1"
       d="M 366.41531,648.36794 C 359.22563,651.182 351.10063,655.68611 342.20698,662.04584 C 336.49302,679.72421 329.53031,692.91795 323.32215,708.75279 C 331.14058,718.74646 341.44193,725.92422 363.96728,719.2055 C 365.70291,702.50554 368.2749,686.12555 377.60633,672.18771 C 373.6111,663.98162 369.80557,655.96981 366.41531,648.36794 z"
       id="path2262" />
    <path
       style="fill:none;fill-rule:evenodd;stroke:#2e3436;stroke-width:1.24344587px;stroke-linecap:butt;stroke-linejoin:miter;stroke-opacity:1"
       d="M 400.80437,619.69097 C 397.40782,619.69118 394.20043,620.0325 390.93451,620.89556 C 377.34693,631.09429 371.96653,638.98414 366.57075,648.29022 C 366.51817,648.31066 366.46812,648.34666 366.41531,648.36794 C 369.73988,655.82253 373.46266,663.68179 377.37318,671.72141 C 384.56551,664.8388 391.80278,657.616 398.35633,654.58517 C 403.46354,647.91417 406.02621,641.96351 418.32918,633.33002 C 418.71381,631.20942 418.64364,628.18353 418.32918,624.66475 C 415.79914,622.99774 413.69381,621.19481 409.15876,620.19613 C 406.17246,619.90261 403.42314,619.69081 400.80437,619.69097 z"
       id="path2270" />
    <path
       style="fill:none;fill-rule:evenodd;stroke:#2e3436;stroke-width:1.24344587px;stroke-linecap:butt;stroke-linejoin:miter;stroke-opacity:1"
       d="M 382.7744,612.19144 C 386.08862,614.94565 388.9078,617.67461 391.55623,620.42927 C 391.35046,620.58194 391.17549,620.74393 390.97337,620.89556 C 394.22651,620.03969 397.42066,619.69118 400.80437,619.69097 C 403.0101,619.69084 405.34417,619.85676 407.79876,620.07955 C 399.23127,616.06339 390.89568,613.52406 382.7744,612.19144 z"
       id="path2278" />
    <path
       style="fill:none;fill-rule:evenodd;stroke:#2e3436;stroke-width:1.24344587px;stroke-linecap:butt;stroke-linejoin:miter;stroke-opacity:1"
       d="M 422.40924,632.78601 C 420.95906,632.81566 419.68432,632.95564 418.36804,633.09687 C 418.35615,633.17001 418.34209,633.25891 418.32918,633.33002 C 406.31671,641.75967 403.58201,647.63675 398.70605,654.11888 C 400.01264,664.40941 403.07496,676.1874 408.10961,685.3216 C 411.74585,683.17003 414.88564,682.50414 417.82402,682.44614 C 417.40327,671.15801 419.31376,649.9896 446.46216,646.96906 C 441.86828,642.58335 437.52484,637.69436 432.27909,634.61232 C 427.87076,633.05503 424.88799,632.73534 422.40924,632.78601 z"
       id="path2286" />
    <path
       style="fill:none;fill-rule:evenodd;stroke:#2e3436;stroke-width:1.24344587px;stroke-linecap:butt;stroke-linejoin:miter;stroke-opacity:1"
       d="M 418.01833,624.47047 C 418.12047,624.53898 418.22579,624.59663 418.32918,624.66475 C 418.63311,628.06553 418.71052,630.98916 418.36804,633.09687 C 419.68432,632.95564 420.95906,632.81566 422.40924,632.78601 C 424.75906,632.73798 427.57768,633.0227 431.61852,634.37917 C 427.6761,630.28313 423.35156,626.71151 418.01833,624.47047 z"
       id="path2291" />
    <path
       style="fill:none;fill-rule:evenodd;stroke:#2e3436;stroke-width:1.24344587px;stroke-linecap:butt;stroke-linejoin:miter;stroke-opacity:1"
       d="M 398.70605,654.11888 C 398.58799,654.27609 398.47692,654.42765 398.35633,654.58517 C 391.80278,657.616 384.56551,664.8388 377.37318,671.72141 C 377.45045,671.88027 377.52892,672.02871 377.60633,672.18771 C 376.4399,673.92993 375.38676,675.69681 374.41999,677.5112 C 373.93759,678.4155 373.49715,679.31057 373.05998,680.23124 C 372.81578,680.74543 372.59129,681.26649 372.36054,681.78555 C 372.1761,682.20021 371.95384,682.61134 371.77767,683.02899 C 371.77309,683.03989 371.78226,683.05696 371.77767,683.06786 C 371.38809,683.9929 371.04067,684.92658 370.68966,685.86561 C 370.68378,685.88136 370.65667,685.8887 370.6508,685.90446 C 370.30192,686.83961 369.99275,687.79306 369.67936,688.74108 C 369.45804,689.41057 369.22355,690.08618 369.01878,690.76168 C 368.92881,691.0585 368.83369,691.35746 368.74678,691.6554 C 368.74331,691.66734 368.75024,691.68232 368.74678,691.69426 C 368.46596,692.65831 368.18137,693.59471 367.93076,694.56973 C 367.92456,694.59394 367.93696,694.62322 367.93076,694.64745 C 367.68398,695.61062 367.45138,696.58888 367.23133,697.56177 C 367.22577,697.58642 367.23687,697.61484 367.23133,697.63949 C 367.01198,698.61236 366.80495,699.5722 366.6096,700.55381 C 366.51675,701.02097 366.42545,701.48373 366.3376,701.95269 C 366.23554,702.49667 366.12249,703.03843 366.02674,703.58471 C 366.0201,703.62265 366.03334,703.66335 366.02674,703.70128 C 365.85618,704.67889 365.67404,705.67023 365.52159,706.65447 C 365.51573,706.69237 365.52742,706.73313 365.52159,706.77104 C 365.21216,708.77774 364.91736,710.80454 364.66672,712.83285 C 364.66198,712.87121 364.67143,712.91103 364.66672,712.94942 C 364.41697,714.97803 364.1802,717.00775 363.96728,719.05007 C 374.19594,720.91049 384.76053,723.62754 399.40549,711.35625 C 400.55658,703.5627 405.20166,693.54497 409.43076,684.5833 C 409.00056,684.80352 408.55412,685.05859 408.10961,685.3216 C 403.07496,676.1874 400.01264,664.40941 398.70605,654.11888 z"
       id="path2299" />
    <path
       style="fill:none;fill-rule:evenodd;stroke:#2e3436;stroke-width:1.24344587px;stroke-linecap:butt;stroke-linejoin:miter;stroke-opacity:1"
       d="M 417.62975,682.44614 C 415.10646,682.51855 412.44298,683.04024 409.43076,684.5833 C 405.34116,693.24935 400.89283,702.90419 399.56092,710.5791 C 410.421,704.58831 419.25633,697.17755 417.62975,682.44614 z"
       id="path2315" />
    <path
       style="fill:none;fill-rule:evenodd;stroke:#2e3436;stroke-width:1.24344587px;stroke-linecap:butt;stroke-linejoin:miter;stroke-opacity:1"
       d="M 262.03743,629.63511 C 255.44345,633.92515 251.91429,640.54174 252.68094,645.60817 C 247.89963,651.59145 247.11571,660.66705 248.40414,668.58732 C 248.40414,674.04064 253.46794,681.83108 257.75267,686.11583 C 261.38653,691.2437 266.68597,697.59387 274.89167,701.69672 C 278.267,705.37571 282.44028,708.78874 288.91447,711.43477 C 292.87903,717.19314 302.19345,719.81555 310.33819,721.56236 C 316.31087,725.80335 323.06258,727.31415 330.59335,727.79471 C 334.7292,729.75504 340.48039,730.63845 347.73233,730.52137 C 359.977,732.797 371.58209,731.87473 382.78933,728.96328 C 388.81759,727.30315 394.40333,725.42175 398.37022,722.73092 C 412.2684,717.10485 420.69619,706.02954 424.07869,697.02245 C 428.24437,682.61185 428.12163,670.8116 434.33132,664.07161 C 441.88895,655.86859 453.86473,659.30456 447.85015,647.74656 C 447.85015,647.74656 415.86347,610.82677 366.07436,608.4048 C 316.29426,605.98327 293.97826,612.88564 293.97826,612.88564 C 287.69578,614.29197 279.85585,616.24612 276.44975,621.45512 C 268.86321,622.39613 263.52082,625.81248 262.03743,629.63511 z"
       id="path2493"
       sodipodi:nodetypes="ccccccccccccsczccc" />
    <path
       style="fill:none;fill-rule:evenodd;stroke:#2e3436;stroke-width:1.24344587px;stroke-linecap:butt;stroke-linejoin:miter;stroke-opacity:1"
       d="M 276.8872,620.81785 C 276.73202,621.02187 276.60029,621.22467 276.45977,621.43957 C 269.08831,622.35388 263.85169,625.63743 262.199,629.32768 C 266.44016,629.57733 270.42675,630.00612 273.66202,630.92085 C 275.63616,628.62527 277.98908,626.30783 280.73412,623.96532 C 279.45021,622.54615 278.16979,621.5999 276.8872,620.81785 z"
       id="path2595" />
    <path
       style="fill:none;fill-rule:evenodd;stroke:#2e3436;stroke-width:1.24344587px;stroke-linecap:butt;stroke-linejoin:miter;stroke-opacity:1"
       d="M 262.54872,628.62824 C 262.41407,628.86001 262.30462,629.09184 262.199,629.32768 C 262.30534,629.09023 262.413,628.86133 262.54872,628.62824 z M 262.199,629.32768 C 262.15079,629.43535 262.08563,629.53016 262.04357,629.63854 C 255.68022,633.77854 252.18872,640.07575 252.64001,645.06505 C 256.30803,643.51211 260.27217,642.66625 266.16249,643.04444 C 267.70596,639.12736 270.09887,635.06414 273.66202,630.92085 C 270.42675,630.00612 266.44016,629.57733 262.199,629.32768 z"
       id="path2603"
       sodipodi:nodetypes="csccccccc" />
    <path
       style="fill:none;fill-rule:evenodd;stroke:#2e3436;stroke-width:1.24344587px;stroke-linecap:butt;stroke-linejoin:miter;stroke-opacity:1"
       d="M 295.03375,612.58002 C 294.32631,612.76402 293.98459,612.89088 293.98459,612.89088 C 287.96131,614.23918 280.49376,616.07682 276.8872,620.81785 C 278.16979,621.5999 279.45021,622.54615 280.73412,623.96532 C 283.52215,621.58645 286.71259,619.18863 290.40968,616.77665 C 292.83674,615.43024 295.02809,614.51271 297.05435,613.86232 L 295.0726,612.58002 L 295.03375,612.58002 z"
       id="path2614" />
    <path
       style="fill:none;fill-rule:evenodd;stroke:#2e3436;stroke-width:1.24344587px;stroke-linecap:butt;stroke-linejoin:miter;stroke-opacity:1"
       d="M 262.08243,642.96673 C 258.3106,643.11787 255.39102,643.90034 252.64001,645.06505 C 252.65619,645.24394 252.65234,645.43367 252.67887,645.60905 C 248.0293,651.42748 247.18636,660.15254 248.32681,667.91336 C 253.98639,663.18125 259.13238,663.73129 264.37503,663.17272 C 263.38707,657.13298 263.2895,650.33556 266.16249,643.04444 C 264.68991,642.94989 263.3397,642.91634 262.08243,642.96673 z"
       id="path2627"
       sodipodi:nodetypes="ccccccc" />
    <path
       style="fill:none;fill-rule:evenodd;stroke:#2e3436;stroke-width:1.24344587px;stroke-linecap:butt;stroke-linejoin:miter;stroke-opacity:1"
       d="M 264.37503,663.17272 C 259.13238,663.73129 253.98639,663.18125 248.32681,667.91336 C 248.35913,668.13326 248.36903,668.3557 248.40452,668.57394 C 248.40452,674.02726 253.48448,681.81401 257.76923,686.09876 C 258.00138,686.42635 258.26146,686.77239 258.50752,687.10905 C 260.34544,682.87075 263.15396,680.20732 269.23225,679.29866 C 266.18563,674.77216 264.3376,670.04573 264.91904,666.66992 C 264.94659,666.63157 264.96917,666.5916 264.99676,666.55334 C 264.75694,665.46259 264.563,664.32187 264.37503,663.17272 z"
       id="path2638"
       sodipodi:nodetypes="ccccccccc" />
    <path
       style="fill:none;fill-rule:evenodd;stroke:#2e3436;stroke-width:1.24344587px;stroke-linecap:butt;stroke-linejoin:miter;stroke-opacity:1"
       d="M 269.23225,679.29866 C 263.15396,680.20732 260.34544,682.87075 258.50752,687.10905 C 261.93305,691.79506 266.72321,697.27174 273.7786,701.09782 C 274.82,696.73076 276.72486,692.57032 279.99582,690.17881 C 276.00264,687.59458 272.09216,683.54778 269.23225,679.29866 z"
       id="path2652" />
    <path
       style="fill:none;fill-rule:evenodd;stroke:#2e3436;stroke-width:1.24344587px;stroke-linecap:butt;stroke-linejoin:miter;stroke-opacity:1"
       d="M 279.99582,690.17881 C 276.72486,692.57032 274.82,696.73076 273.7786,701.09782 C 274.14816,701.29823 274.52343,701.48967 274.90547,701.68069 C 278.28081,705.35968 282.4589,708.78792 288.93309,711.43397 C 289.04371,711.59463 289.16401,711.74443 289.28281,711.90026 C 290.43017,708.87719 291.40566,706.2332 297.94807,702.2247 C 292.91592,699.06392 288.979,695.48723 287.02907,692.97656 C 284.80496,692.76927 282.38626,691.72581 279.99582,690.17881 z"
       id="path2666"
       sodipodi:nodetypes="cccccccc" />
    <path
       style="fill:none;fill-rule:evenodd;stroke:#2e3436;stroke-width:1.24344587px;stroke-linecap:butt;stroke-linejoin:miter;stroke-opacity:1"
       d="M 297.94807,702.2247 C 291.40566,706.2332 290.43017,708.87719 289.28281,711.90026 C 293.40508,717.32118 302.36129,719.87688 310.26596,721.57582 C 310.21818,717.37452 312.48071,712.9165 316.2889,709.1025 C 309.66279,708.40095 303.21723,705.53494 297.94807,702.2247 z"
       id="path2680" />
    <path
       style="fill:none;fill-rule:evenodd;stroke:#2e3436;stroke-width:1.24344587px;stroke-linecap:butt;stroke-linejoin:miter;stroke-opacity:1"
       d="M 323.32215,708.75279 C 323.29189,708.82994 323.27464,708.90865 323.24443,708.98593 C 320.79389,709.36012 318.31894,709.32738 315.86147,709.02479 C 316.00445,709.04195 316.14573,709.08735 316.2889,709.1025 C 312.48071,712.9165 310.21818,717.37452 310.26596,721.57582 C 310.29006,721.58102 310.31959,721.57066 310.34368,721.57582 C 316.31635,725.81681 323.05776,727.31248 330.58853,727.79305 C 330.95844,727.96838 331.3586,728.14004 331.75426,728.2982 C 331.1531,724.84197 332.63943,721.28864 334.86288,718.81692 C 330.16855,716.42972 326.51961,712.83986 323.32215,708.75279 z"
       id="path2691"
       sodipodi:nodetypes="ccsccccccc" />
    <path
       style="fill:none;fill-rule:evenodd;stroke:#2e3436;stroke-width:1.24344587px;stroke-linecap:butt;stroke-linejoin:miter;stroke-opacity:1"
       d="M 334.86288,718.81692 C 332.63943,721.28864 331.1531,724.84197 331.75426,728.2982 C 335.78246,729.90834 341.12143,730.6197 347.72477,730.51309 C 347.9981,730.56388 348.26808,730.6209 348.54078,730.66852 C 347.08329,727.38095 348.27406,724.53737 349.93966,721.77011 C 343.79757,722.04699 338.93137,720.89019 334.86288,718.81692 z"
       id="path2705" />
    <path
       style="fill:none;fill-rule:evenodd;stroke:#2e3436;stroke-width:1.24344587px;stroke-linecap:butt;stroke-linejoin:miter;stroke-opacity:1"
       d="M 363.96728,719.05007 C 363.96194,719.10129 363.9726,719.15429 363.96728,719.2055 C 358.64687,720.79244 354.02085,721.5864 349.93966,721.77011 C 348.27406,724.53737 347.08329,727.38095 348.54078,730.66852 C 360.48401,732.75452 371.81733,731.80524 382.7744,728.95878 C 383.48958,728.76183 384.17196,728.54122 384.87271,728.33706 C 385.40771,725.01957 385.31614,722.062 384.25099,719.71065 C 376.76546,721.6685 370.30445,720.2027 363.96728,719.05007 z"
       id="path2716" />
    <path
       style="fill:none;fill-rule:evenodd;stroke:#2e3436;stroke-width:1.24344587px;stroke-linecap:butt;stroke-linejoin:miter;stroke-opacity:1"
       d="M 398.86148,711.78369 C 393.51214,716.15941 388.69528,718.54824 384.25099,719.71065 C 385.31614,722.062 385.40771,725.01957 384.87271,728.33706 C 390.07886,726.8231 394.86006,725.11315 398.35633,722.74155 C 398.55573,722.66083 398.74205,722.55248 398.93919,722.46955 C 399.96179,718.8909 399.80563,715.37419 398.86148,711.78369 z"
       id="path2730" />
    <path
       style="fill:none;fill-rule:evenodd;stroke:#2e3436;stroke-width:1.24344587px;stroke-linecap:butt;stroke-linejoin:miter;stroke-opacity:1"
       d="M 417.62975,682.48499 C 419.23604,697.18996 410.41124,704.59371 399.56092,710.5791 C 399.51548,710.8409 399.44346,711.09917 399.40549,711.35625 C 399.22301,711.50914 399.04188,711.63625 398.86148,711.78369 C 399.80563,715.37419 399.96179,718.8909 398.93919,722.46955 C 412.4824,716.77119 420.74628,705.89518 424.08013,697.01776 C 424.34778,696.09185 424.58337,695.16259 424.81843,694.25887 C 423.15267,688.80194 420.67401,685.34167 417.62975,682.48499 z"
       id="path2741" />
    <path
       style="fill:none;fill-rule:evenodd;stroke:#2e3436;stroke-width:1.24344587px;stroke-linecap:butt;stroke-linejoin:miter;stroke-opacity:1"
       d="M 446.30672,646.81363 C 446.35946,646.86417 446.40935,646.91866 446.46216,646.96906 C 419.31376,649.9896 417.40327,671.15801 417.82402,682.44614 C 417.5706,682.45113 417.3035,682.47038 417.04687,682.48499 L 417.7463,683.92272 C 417.71559,683.44579 417.68362,682.97813 417.62975,682.48499 C 420.67401,685.34167 423.15267,688.80194 424.81843,694.25887 C 428.24241,681.09749 428.52784,670.37337 434.33856,664.06645 C 441.89619,655.86343 453.87557,659.30422 447.86102,647.74622 C 447.86102,647.74622 447.54262,647.39774 447.47245,647.31879 L 446.30672,646.81363 z"
       id="path2758" />
  </g>
</svg>
